<svg width="40" height="40" viewBox="0 0 40 40" fill="none" xmlns="http://www.w3.org/2000/svg">
<path d="M36.4531 1.50937H3.54999C2.42299 1.50937 1.50937 2.42299 1.50937 3.54999V36.4531C1.50937 37.5801 2.42299 38.4937 3.54999 38.4937H36.4531C37.5801 38.4937 38.4937 37.5801 38.4937 36.4531V3.54999C38.4937 2.42299 37.5801 1.50937 36.4531 1.50937Z" fill="#3D5A98"/>
<path d="M27.025 38.4906V24.1687H31.8313L32.55 18.5875H27.025V15.025C27.025 13.4094 27.475 12.3062 29.7906 12.3062H32.7469V7.30625C31.3153 7.15733 29.8768 7.08639 28.4375 7.09375C24.1813 7.09375 21.25 9.6875 21.25 14.4719V18.5875H16.4438V24.1687H21.25V38.4906H27.025Z" fill="white"/>
</svg>
