<svg
    width="50"
    height="50"
    viewBox="0 0 50 50"
    fill="none"
    xmlns="http://www.w3.org/2000/svg">
    <g clip-path="url(#clip0_5_28)">
        <path
            d="M12.1653 16.4469C13.1 16.4469 13.8561 17.1948 13.8561 18.1177C13.8561 19.0417 13.1 19.7885 12.1653 19.7885C11.2316 19.7885 10.4745 19.0417 10.4745 18.1177C10.4745 17.9417 10.5194 17.7219 10.6082 17.5458L7.22755 15.5229L0.510204 19.3927V24.8896H5.49286C5.60973 24.5523 5.82702 24.2608 6.1143 24.0559C6.40158 23.851 6.74446 23.7429 7.0949 23.7469C8.02857 23.7469 8.78469 24.4948 8.78469 25.4177C8.78469 26.3417 8.02857 27.0885 7.09388 27.0885C6.24898 27.0885 5.58163 26.5167 5.40408 25.7698H0.510204V31.6187L7.13878 35.6198L10.5643 33.5531C10.5092 33.3675 10.479 33.1751 10.4745 32.9812C10.4745 32.0583 11.2316 31.3104 12.1653 31.3104C13.1 31.3104 13.8112 32.0583 13.8112 32.9812C13.8112 33.9052 13.0551 34.6531 12.1214 34.6531C11.7204 34.6531 11.3643 34.476 11.0531 34.2573L7.62755 36.3229V42.5667L20.0837 50L24.5327 46.8781V25.9458H22.0857C21.9688 26.2831 21.7516 26.5746 21.4643 26.7795C21.177 26.9845 20.8341 27.0925 20.4837 27.0885C19.55 27.0885 18.7939 26.3417 18.7939 25.4177C18.7939 24.4948 19.55 23.7469 20.4847 23.7469C21.3296 23.7469 21.9969 24.3187 22.1306 25.0656H24.5327V3.16667L19.1939 0L7.62755 6.86042V14.7312L11.0969 16.8427C11.4092 16.5792 11.7653 16.4469 12.1653 16.4469ZM39.4796 18.1615C39.4796 19.0854 38.7245 19.8333 37.7898 19.8333C36.8551 19.8333 36.099 19.0854 36.099 18.1615C36.099 17.2385 36.8551 16.4906 37.7898 16.4906C38.1898 16.4906 38.5449 16.6667 38.8571 16.8865L42.3714 14.776V6.85937L30.8051 0L25.4663 3.16667V25.0656H27.8245C27.9571 24.3187 28.6694 23.7469 29.4704 23.7469C30.4051 23.7469 31.1612 24.4948 31.1612 25.4177C31.1612 26.3417 30.4051 27.0885 29.4704 27.0885C29.12 27.0925 28.7771 26.9845 28.4898 26.7795C28.2025 26.5746 27.9852 26.2831 27.8684 25.9458H25.4663V46.8781L29.9153 50L42.3714 42.5677V36.3677L38.902 34.2573C38.5898 34.5208 38.2337 34.6531 37.8337 34.6531C36.9 34.6531 36.1429 33.9052 36.1429 32.9812C36.1429 32.0583 36.9 31.3104 37.8337 31.3104C38.7684 31.3104 39.5245 32.0583 39.5245 32.9812C39.5245 33.201 39.4796 33.3771 39.3908 33.5542L42.8602 35.6198L49.4888 31.6187V25.7698H44.551C44.4184 26.5167 43.7061 27.0885 42.9051 27.0885C41.9714 27.0885 41.2153 26.3417 41.2153 25.4177C41.2153 24.4948 41.9704 23.7469 42.9051 23.7469C43.6612 23.7469 44.2847 24.2302 44.5071 24.8906H49.4888V19.3927L42.8153 15.5229L39.3459 17.5906C39.4357 17.7656 39.4796 17.9417 39.4796 18.1615Z"
            fill="black" />
        <path
            d="M7.22755 15.5229L10.6092 17.5458C10.5227 17.724 10.477 17.9199 10.4755 18.1188C10.4755 19.0417 11.2306 19.7896 12.1653 19.7896C13.1 19.7896 13.8561 19.0417 13.8561 18.1177C13.8561 17.1948 13.1 16.4469 12.1653 16.4469C11.7653 16.4469 11.4102 16.5792 11.098 16.8427L7.62857 14.7323V15.2594L7.22755 15.5229ZM12.1224 34.6531C13.0561 34.6531 13.8122 33.9052 13.8122 32.9823C13.8122 32.0583 13.1 31.3115 12.1663 31.3115C11.2316 31.3115 10.4755 32.0583 10.4755 32.9823C10.4755 33.201 10.5204 33.3781 10.5653 33.5542L7.1398 35.6208L7.62959 35.9281V36.324L11.0541 34.2573C11.3653 34.4771 11.7214 34.6531 12.1214 34.6531H12.1224ZM7.09388 27.0885C8.02857 27.0885 8.78469 26.3417 8.78469 25.4177C8.78469 24.4948 8.02857 23.7469 7.09388 23.7469C6.33878 23.7469 5.71531 24.2302 5.49184 24.8906H0.510204V25.7698H5.40408C5.58163 26.5167 6.24898 27.0885 7.09388 27.0885ZM20.4847 23.7469C19.551 23.7469 18.7949 24.4948 18.7949 25.4177C18.7949 26.3417 19.55 27.0885 20.4847 27.0885C21.2408 27.0885 21.8643 26.6052 22.0867 25.9458H24.5327V25.0656H22.1306C21.998 24.3188 21.3306 23.7469 20.4847 23.7469ZM42.3714 14.7761L38.8571 16.8875C38.5459 16.6677 38.1898 16.4917 37.7898 16.4917C36.8551 16.4917 36.099 17.2396 36.099 18.1625C36.099 19.0865 36.8551 19.8333 37.7898 19.8333C38.7235 19.8333 39.4796 19.0865 39.4796 18.1625C39.4796 17.9438 39.4357 17.7667 39.3469 17.5906L42.8163 15.524L42.3714 15.2604V14.7761ZM39.5235 32.9823C39.5235 32.0583 38.7673 31.3115 37.8326 31.3115C36.899 31.3115 36.1418 32.0583 36.1418 32.9823C36.1418 33.9052 36.899 34.6531 37.8326 34.6531C38.2326 34.6531 38.5888 34.5208 38.9 34.2573L42.3694 36.3677V35.9281L42.8592 35.6208L39.3898 33.5542C39.4786 33.3771 39.5224 33.2021 39.5224 32.9813L39.5235 32.9823ZM42.9061 23.7469C41.9714 23.7469 41.2153 24.4948 41.2153 25.4177C41.2153 26.3417 41.9714 27.0885 42.9061 27.0885C43.7071 27.0885 44.4184 26.5167 44.552 25.7698H49.4898V24.8896H44.5071C44.3903 24.5523 44.173 24.2608 43.8857 24.0559C43.5984 23.851 43.2566 23.7429 42.9061 23.7469ZM29.4704 27.0885C30.4051 27.0885 31.1612 26.3417 31.1612 25.4177C31.1612 24.4948 30.4051 23.7469 29.4704 23.7469C28.6694 23.7469 27.9582 24.3188 27.8245 25.0656H25.4673V25.9458H27.8694C27.9863 26.2831 28.2035 26.5746 28.4908 26.7796C28.7781 26.9845 29.12 27.0925 29.4704 27.0885Z"
            fill="#50E6FF" />
        <path
            d="M19.8163 39.3125V32.4532L15.9469 30.1219V21.5469L19.8173 19.3042V10.3771C20.5286 10.1136 20.9735 9.41045 20.8847 8.66253C20.7959 7.73857 19.95 7.0792 19.0163 7.16774C18.7979 7.18671 18.5853 7.24965 18.3908 7.35293C18.1963 7.45622 18.0238 7.5978 17.8832 7.76951C17.7426 7.94121 17.6367 8.13964 17.5717 8.35335C17.5066 8.56705 17.4836 8.7918 17.5041 9.01461C17.5531 9.38661 17.7179 9.73269 17.9742 10.0018C18.2305 10.271 18.5647 10.4489 18.9276 10.5094V18.8646L15.0571 21.1073V30.65L18.9276 32.9813V39.225C18.0378 39.3573 17.4143 40.149 17.5041 41.0282C17.5929 41.9521 18.4378 42.6115 19.3714 42.5229C19.59 42.5041 19.8027 42.4413 19.9973 42.338C20.1919 42.2348 20.3645 42.0932 20.5052 41.9215C20.6459 41.7498 20.7519 41.5513 20.817 41.3376C20.8821 41.1238 20.9052 40.899 20.8847 40.6761C20.849 40.3699 20.7302 40.0801 20.5416 39.8393C20.3529 39.5985 20.1021 39.4164 19.8173 39.3136L19.8163 39.3125ZM31.0714 10.4667C31.8276 10.3344 32.4061 9.76357 32.4949 8.9719C32.5152 8.74912 32.4922 8.52443 32.427 8.31078C32.3619 8.09713 32.256 7.89876 32.1154 7.72708C31.9749 7.5554 31.8024 7.41382 31.608 7.31049C31.4136 7.20716 31.201 7.14413 30.9827 7.12503C30.048 7.03649 29.2031 7.69586 29.1143 8.61982C29.0255 9.41149 29.5143 10.0709 30.1816 10.3344V19.3063L34.052 21.5479V30.124L30.1816 32.4542V39.2709C29.6031 39.4896 29.1582 40.0177 29.1143 40.6771C29.0937 40.9 29.1165 41.1249 29.1816 41.3387C29.2466 41.5525 29.3524 41.7511 29.493 41.9229C29.6337 42.0947 29.8062 42.2364 30.0008 42.3397C30.1953 42.4431 30.408 42.5061 30.6265 42.525C31.5602 42.6125 32.4061 41.9521 32.4949 41.0292C32.5837 40.15 31.9612 39.3584 31.0714 39.2271V32.9823L34.9418 30.6511V21.0646L31.0714 18.8229V10.4667Z"
            fill="#50E6FF" />
    </g>
    <defs>
        <clipPath id="clip0_5_28">
            <rect width="50" height="50" fill="white" />
        </clipPath>
    </defs>
</svg>
